<?xml version="1.0" encoding="utf-8"?>
<!-- Generator: Adobe Illustrator 23.0.2, SVG Export Plug-In . SVG Version: 6.00 Build 0)  -->
<svg version="1.1" id="Layer_1" xmlns="http://www.w3.org/2000/svg" xmlns:xlink="http://www.w3.org/1999/xlink" x="0px" y="0px"
	 viewBox="0 0 200 200" style="enable-background:new 0 0 200 200;" xml:space="preserve">
<style type="text/css">
	.st0{fill:#3E42AB;}
	.st1{fill:#FFFFFF;}
</style>
<g>
	<g>
		<polygon class="st0" points="62.42,135.99 24,157.65 92.89,191.31 138.97,154.62 104.45,140.32 92.24,149.09 		"/>
	</g>
	<g>
		<polygon class="st1" points="95.83,184.31 95.33,182.99 94.05,182.53 95.27,182.02 95.83,180.74 96.4,182.03 97.62,182.53 
			96.44,183.02 		"/>
	</g>
	<g>
		<polygon class="st1" points="105.77,157.86 105.27,156.54 103.98,156.07 105.21,155.56 105.77,154.28 106.34,155.58 
			107.56,156.07 106.38,156.56 		"/>
	</g>
	<g>
		<polygon class="st1" points="51.66,163.33 50.7,160.8 48.25,159.92 50.59,158.95 51.66,156.5 52.74,158.97 55.08,159.92 
			52.83,160.86 		"/>
	</g>
	<g>
		<polygon class="st1" points="81.59,168.23 80.96,166.56 79.33,165.97 80.88,165.33 81.59,163.71 82.31,165.35 83.85,165.97 
			82.36,166.59 		"/>
	</g>
	<g>
		<polygon class="st1" points="66.1,144.38 65.47,142.7 63.84,142.12 65.4,141.47 66.1,139.86 66.82,141.49 68.36,142.12 
			66.87,142.74 		"/>
	</g>
	<g>
		<circle class="st1" cx="79.77" cy="154.82" r="0.56"/>
	</g>
	<g>
		<circle class="st1" cx="108.1" cy="146.71" r="0.56"/>
	</g>
	<g>
		<circle class="st1" cx="114.51" cy="166.07" r="0.64"/>
	</g>
	<g>
		<circle class="st1" cx="125.03" cy="156.39" r="0.64"/>
	</g>
	<g>
		<circle class="st1" cx="42.22" cy="153.39" r="0.48"/>
	</g>
	<g>
		<circle class="st1" cx="103.26" cy="163.12" r="0.48"/>
	</g>
	<g>
		<circle class="st1" cx="73.05" cy="171.79" r="0.48"/>
	</g>
	<g>
		<g>
			<path d="M108.55,140.07c-0.3,0-0.61-0.03-0.93-0.08c-7.29-1.22-9.16-26.94-9.94-46.19c-0.05-1.2-0.09-2.15-0.12-2.77
				c-0.31-5.55-5.69-12.36-6.8-13.71l-24.22,5.62l-15.12,7.73l-5.34,10.76c-0.13,0.26-0.44,0.36-0.7,0.23
				c-0.26-0.13-0.36-0.44-0.23-0.7l5.42-10.91c0.05-0.1,0.13-0.18,0.23-0.23l15.33-7.84c0.04-0.02,0.08-0.03,0.12-0.04l24.6-5.7
				c0.19-0.04,0.38,0.02,0.51,0.17c0.28,0.33,6.89,8.05,7.25,14.57c0.04,0.63,0.07,1.58,0.12,2.79c1.17,29.19,4.22,44.4,9.07,45.21
				c1.21,0.2,2.31-0.07,3.34-0.82c4.98-3.63,6.98-17.27,8.43-27.22c0.68-4.66,1.22-8.34,1.92-10.13c1.18-3.03,5.78-8.7,10.66-14.7
				c5.57-6.85,11.88-14.62,13.58-19.16c3.17-8.46,5.68-14.91,5.71-14.98c0.04-0.11,0.12-0.2,0.23-0.26l28.16-16.04
				c0.25-0.14,0.57-0.05,0.71,0.19c0.14,0.25,0.05,0.57-0.19,0.71l-28,15.95c-0.42,1.08-2.75,7.11-5.63,14.79
				c-1.76,4.7-7.85,12.2-13.75,19.45c-4.82,5.94-9.38,11.54-10.5,14.42c-0.65,1.68-1.21,5.49-1.86,9.91
				c-1.48,10.14-3.51,24.02-8.85,27.91C110.76,139.7,109.68,140.07,108.55,140.07z"/>
		</g>
		<g>
			<path d="M31.43,107.91c-0.05,0-0.11-0.01-0.16-0.03c-0.27-0.09-0.42-0.38-0.33-0.66l4.28-12.83c0.06-0.13,3.79-8.12,7.69-13.79
				c3.43-4.99,6.77-6.45,7.73-6.78c0.34-0.91,1.61-4.14,3.17-6.63c1.73-2.77,8.3-5.74,9.37-6.2c0.46-0.65,2.75-3.84,5.3-6.7
				c1.87-2.11,8.23-4.25,14.38-6.31c3.63-1.22,7.06-2.38,9.31-3.44c2.99-1.41,8.1-5.7,13.04-9.86c4.96-4.17,10.08-8.48,13.33-10.1
				c6.34-3.17,33.59-16.62,33.87-16.75c0.26-0.13,0.57-0.02,0.7,0.24c0.13,0.26,0.02,0.57-0.24,0.69
				c-0.27,0.14-27.52,13.58-33.86,16.75c-3.13,1.57-8.21,5.84-13.12,9.96c-5.22,4.39-10.16,8.54-13.27,10
				c-2.3,1.08-5.76,2.25-9.42,3.48c-5.74,1.93-12.25,4.12-13.93,6.02c-2.8,3.15-5.28,6.69-5.31,6.73c-0.06,0.08-0.13,0.14-0.22,0.18
				c-0.07,0.03-7.36,3.18-9.03,5.86c-1.73,2.77-3.15,6.64-3.16,6.68c-0.06,0.16-0.19,0.28-0.36,0.33c-0.03,0.01-3.66,1-7.4,6.44
				c-3.85,5.6-7.54,13.51-7.58,13.59l-4.26,12.78C31.85,107.78,31.64,107.91,31.43,107.91z"/>
		</g>
		<g>
			<path d="M51.03,74.76c-0.21,0-0.4-0.13-0.48-0.33c-0.1-0.27,0.03-0.57,0.3-0.67l19.02-7.38c0.27-0.1,0.57,0.03,0.67,0.3
				c0.1,0.27-0.03,0.57-0.3,0.67l-19.02,7.38C51.16,74.75,51.09,74.76,51.03,74.76z"/>
		</g>
		<g>
			<path d="M63.51,61.92c-0.21,0-0.4-0.13-0.48-0.33c-0.1-0.27,0.03-0.57,0.3-0.67l19.02-7.38c0.27-0.1,0.57,0.03,0.67,0.3
				c0.1,0.27-0.03,0.57-0.3,0.67L63.7,61.89C63.64,61.91,63.58,61.92,63.51,61.92z"/>
		</g>
		<g>
			<path d="M59.22,94.75c-0.03,0-0.06,0-0.09-0.01c-0.28-0.05-0.47-0.32-0.43-0.6l1.49-8.82c0.05-0.28,0.31-0.47,0.6-0.43
				c0.28,0.05,0.47,0.32,0.43,0.6l-1.49,8.82C59.68,94.57,59.46,94.75,59.22,94.75z"/>
		</g>
		<g>
			<path d="M63.72,92.21c-0.03,0-0.05,0-0.08-0.01c-0.28-0.05-0.48-0.31-0.43-0.59l1.29-8.03c0.05-0.28,0.31-0.48,0.59-0.43
				c0.28,0.05,0.48,0.31,0.43,0.59l-1.29,8.03C64.19,92.03,63.97,92.21,63.72,92.21z"/>
		</g>
		<g>
			<path d="M75.28,86.96c-0.03,0-0.06,0-0.08-0.01c-0.28-0.05-0.47-0.31-0.43-0.6L75.82,80c0.05-0.28,0.31-0.47,0.6-0.43
				c0.28,0.05,0.47,0.31,0.43,0.6l-1.05,6.37C75.75,86.78,75.53,86.96,75.28,86.96z"/>
		</g>
		<g>
			<path d="M86.84,85.34c-0.02,0-0.04,0-0.06,0c-0.29-0.03-0.49-0.29-0.46-0.57l0.8-7.23c0.03-0.29,0.28-0.5,0.57-0.46
				c0.29,0.03,0.49,0.29,0.46,0.57l-0.8,7.23C87.33,85.15,87.1,85.34,86.84,85.34z"/>
		</g>
		<g>
			<path d="M95.53,88.78c-0.02,0-0.03,0-0.05,0c-0.29-0.02-0.5-0.28-0.47-0.56l0.29-3.36c0.02-0.29,0.28-0.5,0.56-0.47
				c0.29,0.02,0.5,0.28,0.47,0.56l-0.29,3.36C96.03,88.57,95.8,88.78,95.53,88.78z"/>
		</g>
		<g>
			<path d="M92.72,149.38c-0.57,0-5.32-1.89-73.22-31.89c-0.2-0.09-0.32-0.29-0.31-0.51l0.25-3.44c0.01-0.19,0.12-0.35,0.29-0.43
				l62.12-30.08c0.13-0.06,0.28-0.07,0.41-0.02L98,88.91c0.27,0.1,0.4,0.4,0.3,0.67c-0.1,0.27-0.4,0.4-0.67,0.3l-15.53-5.82
				l-61.65,29.85l-0.2,2.78c24.02,10.61,68.76,30.32,72.24,31.64c1.21-0.84,8.56-6.2,13.51-9.82c0.23-0.17,0.56-0.12,0.73,0.11
				c0.17,0.23,0.12,0.56-0.11,0.73c-4.04,2.96-13.48,9.85-13.82,10.02C92.78,149.37,92.76,149.38,92.72,149.38z"/>
		</g>
		<g>
			<path d="M115.64,132.9c-0.16,0-0.31-0.07-0.42-0.21c-0.17-0.23-0.13-0.55,0.1-0.73l29.71-22.29v-3.2l-21.6-7.77
				c-0.27-0.1-0.41-0.39-0.31-0.66c0.1-0.27,0.39-0.41,0.66-0.31l21.94,7.9c0.21,0.07,0.34,0.27,0.34,0.49v3.82
				c0,0.16-0.08,0.32-0.21,0.42l-29.92,22.44C115.86,132.87,115.75,132.9,115.64,132.9z"/>
		</g>
		<g>
			<path d="M92.43,146.29c-0.07,0-0.14-0.01-0.21-0.04l-72.47-32.2c-0.26-0.12-0.38-0.42-0.26-0.69c0.12-0.26,0.42-0.38,0.69-0.26
				l72.2,32.08l11.82-8.54c0.23-0.17,0.56-0.12,0.72,0.12c0.17,0.23,0.12,0.56-0.12,0.72l-12.06,8.71
				C92.65,146.26,92.54,146.29,92.43,146.29z"/>
		</g>
		<g>
			<path d="M116.86,128.7c-0.16,0-0.31-0.07-0.41-0.21c-0.17-0.23-0.13-0.55,0.1-0.73l28.46-21.45c0.23-0.17,0.55-0.13,0.73,0.1
				c0.17,0.23,0.13,0.55-0.1,0.73l-28.46,21.45C117.08,128.67,116.97,128.7,116.86,128.7z"/>
		</g>
		<g>
			<path d="M92.83,191.97c-0.08,0-0.15-0.02-0.23-0.05l-72.37-35.13c-0.17-0.08-0.29-0.26-0.29-0.45c-0.01-0.19,0.1-0.37,0.27-0.47
				l38.74-21.62c0.25-0.14,0.57-0.05,0.71,0.2c0.14,0.25,0.05,0.57-0.2,0.71l-37.87,21.13l71.18,34.55l47.4-37.83l-31.35-12.95
				c-0.26-0.11-0.39-0.41-0.28-0.68c0.11-0.27,0.41-0.39,0.68-0.28l32.17,13.29c0.17,0.07,0.29,0.22,0.32,0.41
				c0.03,0.18-0.05,0.36-0.19,0.48l-48.35,38.59C93.06,191.93,92.94,191.97,92.83,191.97z"/>
		</g>
		<g>
			<path d="M23.73,158.28c-0.18,0-0.36-0.1-0.45-0.26c-0.14-0.25-0.05-0.57,0.2-0.71l38.5-21.68c0.25-0.14,0.57-0.05,0.71,0.2
				c0.14,0.25,0.05,0.57-0.2,0.71l-38.5,21.68C23.91,158.26,23.82,158.28,23.73,158.28z"/>
		</g>
		<g>
			<path d="M138.54,155c-0.07,0-0.13-0.01-0.2-0.04l-33.72-14.03c-0.26-0.11-0.39-0.41-0.28-0.68c0.11-0.26,0.41-0.39,0.68-0.28
				L138.74,154c0.26,0.11,0.39,0.41,0.28,0.68C138.93,154.88,138.74,155,138.54,155z"/>
		</g>
	</g>
</g>
</svg>
