<?xml version="1.0" encoding="UTF-8" standalone="no"?>
<svg
   xmlns:dc="http://purl.org/dc/elements/1.1/"
   xmlns:cc="http://creativecommons.org/ns#"
   xmlns:rdf="http://www.w3.org/1999/02/22-rdf-syntax-ns#"
   xmlns:svg="http://www.w3.org/2000/svg"
   xmlns="http://www.w3.org/2000/svg"
   xmlns:sodipodi="http://sodipodi.sourceforge.net/DTD/sodipodi-0.dtd"
   xmlns:inkscape="http://www.inkscape.org/namespaces/inkscape"
   inkscape:version="1.0 (4035a4fb49, 2020-05-01)"
   sodipodi:docname="laberynth.svg"
   viewBox="0 0 364 398.66666"
   height="398.66666"
   width="364"
   xml:space="preserve"
   id="svg2"
   version="1.1"><metadata
     id="metadata8"><rdf:RDF><cc:Work
         rdf:about=""><dc:format>image/svg+xml</dc:format><dc:type
           rdf:resource="http://purl.org/dc/dcmitype/StillImage" /><dc:title></dc:title></cc:Work></rdf:RDF></metadata><defs
     id="defs6"><clipPath
       id="clipPath42"
       clipPathUnits="userSpaceOnUse"><path
         id="path40"
         d="M 0,299 H 273 V 0 H 0 Z" /></clipPath></defs><sodipodi:namedview
     inkscape:current-layer="g10"
     inkscape:window-maximized="1"
     inkscape:window-y="0"
     inkscape:window-x="1366"
     inkscape:cy="199.33333"
     inkscape:cx="182"
     inkscape:zoom="0.73244149"
     showgrid="false"
     id="namedview4"
     inkscape:window-height="1052"
     inkscape:window-width="1920"
     inkscape:pageshadow="2"
     inkscape:pageopacity="0"
     guidetolerance="10"
     gridtolerance="10"
     objecttolerance="10"
     borderopacity="1"
     bordercolor="#666666"
     pagecolor="#ffffff" /><g
     transform="matrix(1.3333333,0,0,-1.3333333,0,398.66667)"
     inkscape:label="No connection"
     inkscape:groupmode="layer"
     id="g10"><g
       transform="translate(107.8643,242.1421)"
       id="g12"><path
         id="path14"
         style="fill:#3e42ab;fill-opacity:1;fill-rule:nonzero;stroke:none"
         d="m 0,0 -14.747,0.819 0.308,-63.288 14.542,-2.048 z" /></g><g
       transform="translate(144.6738,243.6016)"
       id="g16"><path
         id="path18"
         style="fill:#3e42ab;fill-opacity:1;fill-rule:nonzero;stroke:none"
         d="M 0,0 0.355,-65.13 7.46,-64.301 7.342,0.355 Z" /></g><g
       transform="translate(97.0391,98.459)"
       id="g20"><path
         id="path22"
         style="fill:#3e42ab;fill-opacity:1;fill-rule:nonzero;stroke:none"
         d="m 0,0 12.041,-2.459 0.623,-59.992 -12.82,4.356 z" /></g><g
       transform="translate(99.8965,219.6147)"
       id="g24"><path
         id="path26"
         style="fill:#ffffff;fill-opacity:1;fill-rule:nonzero;stroke:none"
         d="M 0,0 -0.636,1.674 -2.26,2.26 -0.707,2.902 0,4.52 0.717,2.884 2.26,2.26 0.77,1.638 Z" /></g><g
       transform="translate(103.6719,194.8838)"
       id="g28"><path
         id="path30"
         style="fill:#ffffff;fill-opacity:1;fill-rule:nonzero;stroke:none"
         d="M 0,0 -0.395,1.039 -1.403,1.403 -0.439,1.801 0,2.806 0.445,1.791 1.403,1.403 0.479,1.017 Z" /></g><g
       transform="translate(147.1582,194.2305)"
       id="g32"><path
         id="path34"
         style="fill:#ffffff;fill-opacity:1;fill-rule:nonzero;stroke:none"
         d="M 0,0 -0.395,1.039 -1.402,1.403 -0.438,1.801 0,2.806 0.445,1.79 1.403,1.403 0.479,1.017 Z" /></g><g
       transform="translate(104.3638,227.311)"
       id="g44"><path
         id="path46"
         style="fill:#ffffff;fill-opacity:1;fill-rule:nonzero;stroke:none"
         d="m 0,0 c 0,-0.311 -0.252,-0.562 -0.562,-0.562 -0.312,0 -0.563,0.251 -0.563,0.562 0,0.311 0.251,0.562 0.563,0.562 C -0.252,0.562 0,0.311 0,0" /></g><g
       transform="translate(105.1602,214.457)"
       id="g48"><path
         id="path50"
         style="fill:#ffffff;fill-opacity:1;fill-rule:nonzero;stroke:none"
         d="m 0,0 c 0,-0.355 -0.288,-0.643 -0.643,-0.643 -0.355,0 -0.643,0.288 -0.643,0.643 0,0.355 0.288,0.643 0.643,0.643 C -0.288,0.643 0,0.355 0,0" /></g><g
       transform="translate(149.4365,235.5566)"
       id="g52"><path
         id="path54"
         style="fill:#ffffff;fill-opacity:1;fill-rule:nonzero;stroke:none"
         d="m 0,0 c 0,-0.355 -0.287,-0.643 -0.643,-0.643 -0.355,0 -0.642,0.288 -0.642,0.643 0,0.355 0.287,0.643 0.642,0.643 C -0.287,0.643 0,0.355 0,0" /></g><g
       transform="translate(95.9922,199.6543)"
       id="g56"><path
         id="path58"
         style="fill:#ffffff;fill-opacity:1;fill-rule:nonzero;stroke:none"
         d="m 0,0 c 0,-0.267 -0.216,-0.482 -0.482,-0.482 -0.267,0 -0.483,0.215 -0.483,0.482 0,0.266 0.216,0.482 0.483,0.482 C -0.216,0.482 0,0.266 0,0" /></g><g
       transform="translate(151.0586,185.5034)"
       id="g60"><path
         id="path62"
         style="fill:#ffffff;fill-opacity:1;fill-rule:nonzero;stroke:none"
         d="m 0,0 c 0,-0.267 -0.217,-0.482 -0.482,-0.482 -0.267,0 -0.483,0.215 -0.483,0.482 0,0.266 0.216,0.482 0.483,0.482 C -0.217,0.482 0,0.266 0,0" /></g><g
       transform="translate(100.5381,186.0996)"
       id="g64"><path
         id="path66"
         style="fill:#ffffff;fill-opacity:1;fill-rule:nonzero;stroke:none"
         d="m 0,0 c 0,-0.267 -0.216,-0.482 -0.482,-0.482 -0.267,0 -0.483,0.215 -0.483,0.482 0,0.266 0.216,0.482 0.483,0.482 C -0.216,0.482 0,0.266 0,0" /></g><g
       transform="translate(102.2598,79.8594)"
       id="g68"><path
         id="path70"
         style="fill:#ffffff;fill-opacity:1;fill-rule:nonzero;stroke:none"
         d="M 0,0 -0.636,1.674 -2.26,2.26 -0.707,2.901 0,4.52 0.717,2.884 2.26,2.26 0.771,1.638 Z" /></g><g
       transform="translate(106.0356,55.1279)"
       id="g72"><path
         id="path74"
         style="fill:#ffffff;fill-opacity:1;fill-rule:nonzero;stroke:none"
         d="M 0,0 -0.395,1.039 -1.403,1.403 -0.439,1.802 0,2.807 0.445,1.791 1.403,1.403 0.478,1.018 Z" /></g><g
       transform="translate(106.7271,87.5557)"
       id="g76"><path
         id="path78"
         style="fill:#ffffff;fill-opacity:1;fill-rule:nonzero;stroke:none"
         d="m 0,0 c 0,-0.311 -0.252,-0.562 -0.562,-0.562 -0.311,0 -0.563,0.251 -0.563,0.562 0,0.311 0.252,0.562 0.563,0.562 C -0.252,0.562 0,0.311 0,0" /></g><g
       transform="translate(107.5239,74.7021)"
       id="g80"><path
         id="path82"
         style="fill:#ffffff;fill-opacity:1;fill-rule:nonzero;stroke:none"
         d="m 0,0 c 0,-0.355 -0.288,-0.644 -0.643,-0.644 -0.356,0 -0.643,0.289 -0.643,0.644 0,0.354 0.287,0.643 0.643,0.643 C -0.288,0.643 0,0.354 0,0" /></g><g
       transform="translate(100.3574,59.8955)"
       id="g84"><path
         id="path86"
         style="fill:#ffffff;fill-opacity:1;fill-rule:nonzero;stroke:none"
         d="m 0,0 c 0,-0.267 -0.216,-0.482 -0.482,-0.482 -0.267,0 -0.483,0.215 -0.483,0.482 0,0.266 0.216,0.481 0.483,0.481 C -0.216,0.481 0,0.266 0,0" /></g><g
       transform="translate(105.4492,43.4785)"
       id="g88"><path
         id="path90"
         style="fill:#ffffff;fill-opacity:1;fill-rule:nonzero;stroke:none"
         d="m 0,0 c 0,-0.266 -0.216,-0.481 -0.482,-0.481 -0.267,0 -0.482,0.215 -0.482,0.481 0,0.267 0.215,0.482 0.482,0.482 C -0.216,0.482 0,0.267 0,0" /></g><g
       transform="translate(125.8682,10.5635)"
       id="g92"><path
         id="path94"
         style="fill:#ffffff;fill-opacity:1;fill-rule:nonzero;stroke:none"
         d="m 0,0 c -0.287,0 -0.519,0.231 -0.519,0.519 v 143.264 c 0,0.287 0.232,0.519 0.519,0.519 0.287,0 0.519,-0.232 0.519,-0.519 V 0.519 C 0.519,0.231 0.287,0 0,0" /></g><g
       transform="translate(76.7246,162.083)"
       id="g116"><path
         id="path118"
         style="fill:#ffffff;fill-opacity:1;fill-rule:nonzero;stroke:none"
         d="m 0,0 41.559,-6.739 5.895,1.895 V 97.896 L 41.318,98.532 0,98.979 Z m 41.599,-7.79 c -0.028,0 -0.056,0.002 -0.083,0.007 l -42.118,6.829 c -0.252,0.041 -0.436,0.258 -0.436,0.513 v 99.944 c 0,0.139 0.056,0.272 0.154,0.37 0.099,0.097 0.244,0.125 0.371,0.149 l 41.89,-0.455 6.649,-0.686 c 0.265,-0.027 0.466,-0.25 0.466,-0.516 V -5.222 c 0,-0.226 -0.145,-0.425 -0.36,-0.494 L 41.757,-7.765 C 41.706,-7.782 41.652,-7.79 41.599,-7.79" /></g><g
       transform="translate(118.0957,154.5381)"
       id="g120"><path
         id="path122"
         style="fill:#ffffff;fill-opacity:1;fill-rule:nonzero;stroke:none"
         d="m 0,0 c -0.287,0 -0.519,0.232 -0.519,0.519 v 106.074 c 0,0.286 0.232,0.519 0.519,0.519 0.287,0 0.519,-0.233 0.519,-0.519 V 0.519 C 0.519,0.232 0.287,0 0,0" /></g><g
       transform="translate(84.9912,170.4932)"
       id="g124"><path
         id="path126"
         style="fill:#ffffff;fill-opacity:1;fill-rule:nonzero;stroke:none"
         d="M 0,0 22.422,-3.203 V 76.456 L 0,77.371 Z m 22.941,-4.321 c -0.024,0 -0.048,0.002 -0.073,0.006 l -23.46,3.351 c -0.256,0.037 -0.446,0.256 -0.446,0.514 v 78.361 c 0,0.141 0.058,0.277 0.16,0.375 0.101,0.097 0.235,0.152 0.38,0.144 l 23.46,-0.958 c 0.279,-0.011 0.498,-0.24 0.498,-0.518 V -3.802 c 0,-0.15 -0.065,-0.293 -0.179,-0.392 -0.094,-0.082 -0.216,-0.127 -0.34,-0.127" /></g><g
       transform="translate(107.7734,177.1846)"
       id="g128"><path
         id="path130"
         style="fill:#ffffff;fill-opacity:1;fill-rule:nonzero;stroke:none"
         d="m 0,0 c -0.022,0 -0.045,0.001 -0.068,0.004 l -14.523,1.915 c -0.259,0.035 -0.451,0.255 -0.451,0.515 v 63.5 c 0,0.143 0.059,0.279 0.163,0.378 0.103,0.098 0.245,0.146 0.386,0.14 L 0.008,65.603 C 0.294,65.586 0.512,65.341 0.496,65.055 0.479,64.769 0.227,64.554 -0.053,64.567 l -13.951,0.817 V 2.889 L 0.067,1.034 C 0.352,0.996 0.552,0.735 0.514,0.451 0.479,0.19 0.257,0 0,0" /></g><g
       transform="translate(93.4238,242.3872)"
       id="g132"><path
         id="path134"
         style="fill:#ffffff;fill-opacity:1;fill-rule:nonzero;stroke:none"
         d="m 0,0 c -0.093,0 -0.187,0.025 -0.271,0.077 l -8.952,5.498 c -0.244,0.15 -0.321,0.469 -0.171,0.714 0.15,0.245 0.469,0.32 0.714,0.17 L 0.272,0.961 C 0.516,0.812 0.593,0.492 0.443,0.248 0.345,0.088 0.174,0 0,0" /></g><g
       transform="translate(84.4722,169.5239)"
       id="g136"><path
         id="path138"
         style="fill:#ffffff;fill-opacity:1;fill-rule:nonzero;stroke:none"
         d="M 0,0 C -0.125,0 -0.251,0.045 -0.351,0.136 -0.562,0.33 -0.576,0.659 -0.383,0.87 l 8.778,9.575 C 8.589,10.656 8.917,10.67 9.128,10.478 9.34,10.284 9.354,9.955 9.161,9.744 L 0.383,0.168 C 0.28,0.057 0.14,0 0,0" /></g><g
       transform="translate(136.2285,155.8271)"
       id="g140"><path
         id="path142"
         style="fill:#ffffff;fill-opacity:1;fill-rule:nonzero;stroke:none"
         d="M 0,0 C -0.019,0 -0.036,0.001 -0.055,0.003 L -8.576,0.9 C -8.84,0.928 -9.041,1.151 -9.041,1.417 v 103.755 c 0,0.286 0.232,0.519 0.519,0.519 h 40.216 c 0.287,0 0.519,-0.233 0.519,-0.519 V 68.245 c 0,-0.287 -0.232,-0.519 -0.519,-0.519 -0.287,0 -0.518,0.232 -0.518,0.519 v 36.408 H -8.003 V 1.884 l 7.964,-0.839 31.215,8.099 v 19.781 c 0,0.286 0.231,0.519 0.518,0.519 0.287,0 0.519,-0.233 0.519,-0.519 V 8.742 c 0,-0.236 -0.159,-0.443 -0.389,-0.502 L 0.13,0.017 C 0.088,0.005 0.044,0 0,0" /></g><g
       transform="translate(136.2285,155.8271)"
       id="g144"><path
         id="path146"
         style="fill:#ffffff;fill-opacity:1;fill-rule:nonzero;stroke:none"
         d="m 0,0 c -0.287,0 -0.519,0.232 -0.519,0.519 v 104.54 c 0,0.286 0.232,0.519 0.519,0.519 0.287,0 0.519,-0.233 0.519,-0.519 V 0.519 C 0.519,0.232 0.287,0 0,0" /></g><g
       transform="translate(144.8516,169.2876)"
       id="g148"><path
         id="path150"
         style="fill:#ffffff;fill-opacity:1;fill-rule:nonzero;stroke:none"
         d="m 0,0 c -0.117,0 -0.231,0.04 -0.324,0.114 -0.123,0.098 -0.195,0.247 -0.195,0.405 v 78.884 c 0,0.285 0.23,0.517 0.514,0.519 L 16.54,80.07 c 0.142,0.008 0.272,-0.052 0.37,-0.15 0.099,-0.098 0.153,-0.23 0.153,-0.369 V 54.929 l 12.258,-0.68 v 7.428 c 0,0.14 0.056,0.274 0.157,0.371 0.1,0.098 0.238,0.142 0.376,0.148 l 16.751,-0.43 v 7.74 c 0,0.286 0.232,0.519 0.519,0.519 h 13.22 v 8.049 c 0,0.286 0.231,0.519 0.518,0.519 h 14.402 v 8.935 c 0,0.287 0.231,0.519 0.518,0.519 h 14.697 v 8.788 c 0,0.287 0.232,0.519 0.519,0.519 0.287,0 0.519,-0.232 0.519,-0.519 v -9.307 c 0,-0.286 -0.232,-0.519 -0.519,-0.519 H 76.301 v -8.935 c 0,-0.287 -0.232,-0.519 -0.519,-0.519 H 61.381 v -8.049 c 0,-0.287 -0.232,-0.519 -0.519,-0.519 H 47.643 v -7.754 c 0,-0.14 -0.056,-0.274 -0.157,-0.371 -0.1,-0.098 -0.23,-0.152 -0.376,-0.148 l -16.752,0.43 V 53.7 c 0,-0.143 -0.058,-0.279 -0.162,-0.377 -0.104,-0.098 -0.261,-0.145 -0.384,-0.141 L 16.517,53.92 c -0.276,0.015 -0.491,0.243 -0.491,0.518 v 24.59 L 0.519,78.889 V 1.167 l 15.507,3.461 v 11.845 c 0,0.149 0.064,0.291 0.176,0.39 0.111,0.097 0.261,0.142 0.408,0.125 l 34.658,-4.424 18.556,5.035 v 5.982 c 0,0.286 0.232,0.519 0.519,0.519 0.287,0 0.518,-0.233 0.518,-0.519 v -6.379 c 0,-0.234 -0.156,-0.439 -0.382,-0.501 L 51.439,11.535 C 51.375,11.519 51.306,11.514 51.238,11.521 L 17.063,15.884 V 4.212 c 0,-0.243 -0.167,-0.454 -0.405,-0.506 L 0.113,0.013 C 0.075,0.004 0.038,0 0,0" /></g><g
       transform="translate(196.1553,180.8047)"
       id="g152"><path
         id="path154"
         style="fill:#ffffff;fill-opacity:1;fill-rule:nonzero;stroke:none"
         d="m 0,0 c -0.287,0 -0.519,0.232 -0.519,0.519 v 11.66 c 0,0.145 0.06,0.282 0.166,0.381 0.105,0.098 0.246,0.15 0.392,0.137 l 13.168,-0.991 v 8.591 c 0,0.142 0.059,0.279 0.162,0.377 0.104,0.097 0.244,0.143 0.385,0.141 l 12.885,-0.708 v 8.308 c 0,0.286 0.231,0.519 0.518,0.519 h 14.979 v 8.189 c 0,0.286 0.231,0.519 0.518,0.519 0.287,0 0.519,-0.233 0.519,-0.519 v -8.708 c 0,-0.287 -0.232,-0.519 -0.519,-0.519 H 27.676 v -8.337 c 0,-0.143 -0.059,-0.279 -0.162,-0.377 -0.104,-0.099 -0.242,-0.155 -0.385,-0.141 l -12.885,0.708 v -8.603 c 0,-0.145 -0.059,-0.282 -0.166,-0.38 -0.104,-0.099 -0.25,-0.148 -0.391,-0.138 L 0.519,11.62 V 0.519 C 0.519,0.232 0.287,0 0,0" /></g><g
       transform="translate(209.8799,191.4316)"
       id="g156"><path
         id="path158"
         style="fill:#ffffff;fill-opacity:1;fill-rule:nonzero;stroke:none"
         d="m 0,0 c -0.239,0 -0.454,0.167 -0.507,0.41 -0.059,0.28 0.119,0.556 0.4,0.616 l 17.496,3.753 v 4.895 c 0,0.287 0.231,0.519 0.518,0.519 0.287,0 0.519,-0.232 0.519,-0.519 V 4.36 c 0,-0.245 -0.171,-0.456 -0.41,-0.507 L 0.109,0.012 C 0.073,0.004 0.036,0 0,0" /></g><g
       transform="translate(223.3115,199.8442)"
       id="g160"><path
         id="path162"
         style="fill:#ffffff;fill-opacity:1;fill-rule:nonzero;stroke:none"
         d="m 0,0 c -0.247,0 -0.466,0.178 -0.511,0.43 -0.049,0.282 0.14,0.551 0.423,0.6 l 18.04,3.148 v 3.267 c 0,0.286 0.232,0.519 0.519,0.519 0.287,0 0.518,-0.233 0.518,-0.519 V 3.742 c 0,-0.253 -0.18,-0.468 -0.429,-0.512 L 0.09,0.008 C 0.06,0.002 0.03,0 0,0" /></g><g
       transform="translate(145.3916,177.8022)"
       id="g164"><path
         id="path166"
         style="fill:#ffffff;fill-opacity:1;fill-rule:nonzero;stroke:none"
         d="m 0,0 c -0.256,0 -0.479,0.189 -0.514,0.449 -0.038,0.284 0.161,0.546 0.446,0.584 l 6.405,0.868 v 63.567 h -6.755 c -0.287,0 -0.519,0.232 -0.519,0.519 0,0.286 0.232,0.519 0.519,0.519 h 7.273 c 0.288,0 0.519,-0.233 0.519,-0.519 V 1.448 c 0,-0.26 -0.191,-0.48 -0.449,-0.514 L 0.07,0.005 C 0.047,0.001 0.023,0 0,0" /></g><g
       transform="translate(161.3955,172.9805)"
       id="g168"><path
         id="path170"
         style="fill:#ffffff;fill-opacity:1;fill-rule:nonzero;stroke:none"
         d="m 0,0 c -0.094,0 -0.189,0.026 -0.275,0.08 l -9.15,5.75 c -0.242,0.152 -0.315,0.473 -0.163,0.716 0.151,0.242 0.471,0.316 0.716,0.163 L 0.277,0.958 C 0.52,0.806 0.593,0.485 0.44,0.243 0.342,0.086 0.173,0 0,0" /></g><g
       transform="translate(152.2471,243.27)"
       id="g172"><path
         id="path174"
         style="fill:#ffffff;fill-opacity:1;fill-rule:nonzero;stroke:none"
         d="m 0,0 c -0.183,0 -0.359,0.097 -0.454,0.268 -0.139,0.251 -0.048,0.567 0.203,0.706 L 8.898,6.023 C 9.15,6.161 9.465,6.07 9.604,5.82 9.742,5.569 9.651,5.253 9.4,5.114 L 0.251,0.064 C 0.171,0.021 0.085,0 0,0" /></g><g
       transform="translate(175.5156,67.0537)"
       id="g176"><path
         id="path178"
         style="fill:#ffffff;fill-opacity:1;fill-rule:nonzero;stroke:none"
         d="m 0,0 c -0.287,0 -0.519,0.231 -0.519,0.519 v 116.338 c 0,0.287 0.232,0.519 0.519,0.519 0.287,0 0.519,-0.232 0.519,-0.519 V 0.519 C 0.519,0.231 0.287,0 0,0" /></g><g
       transform="translate(190.9824,53.1445)"
       id="g180"><path
         id="path182"
         style="fill:#ffffff;fill-opacity:1;fill-rule:nonzero;stroke:none"
         d="m 0,0 c -0.287,0 -0.519,0.231 -0.519,0.519 v 41.24 c 0,0.152 0.067,0.298 0.184,0.396 0.115,0.099 0.271,0.143 0.421,0.116 l 13.058,-2.197 v 6.919 c 0,0.149 0.062,0.289 0.173,0.388 0.112,0.098 0.26,0.143 0.406,0.128 l 12.444,-1.463 v 7.97 c 0,0.151 0.065,0.295 0.18,0.393 0.114,0.098 0.267,0.142 0.416,0.119 L 41.36,52.321 v 7.824 c 0,0.15 0.065,0.293 0.178,0.391 0.115,0.1 0.266,0.146 0.413,0.122 L 56.81,58.57 v 7.83 c 0,0.142 0.057,0.277 0.159,0.375 0.101,0.098 0.235,0.149 0.381,0.144 l 9.065,-0.383 c 0.287,-0.012 0.509,-0.254 0.497,-0.54 -0.012,-0.286 -0.266,-0.479 -0.54,-0.497 l -8.525,0.36 v -7.885 c 0,-0.151 -0.065,-0.293 -0.178,-0.392 -0.114,-0.1 -0.265,-0.145 -0.413,-0.122 l -14.859,2.088 v -7.83 c 0,-0.152 -0.065,-0.295 -0.179,-0.394 -0.115,-0.097 -0.266,-0.142 -0.416,-0.119 l -14.598,2.207 v -7.95 c 0,-0.149 -0.062,-0.289 -0.174,-0.388 -0.111,-0.098 -0.259,-0.141 -0.405,-0.128 l -12.444,1.463 v -6.948 c 0,-0.152 -0.067,-0.298 -0.184,-0.397 -0.115,-0.098 -0.269,-0.14 -0.421,-0.115 L 0.519,41.146 V 0.519 C 0.519,0.231 0.287,0 0,0" /></g><g
       transform="translate(195.292,238.5415)"
       id="g184"><path
         id="path186"
         style="fill:#ffffff;fill-opacity:1;fill-rule:nonzero;stroke:none"
         d="m 0,0 c -0.287,0 -0.519,0.232 -0.519,0.519 v 33.9 c 0,0.287 0.232,0.519 0.519,0.519 0.287,0 0.519,-0.232 0.519,-0.519 V 0.519 C 0.519,0.232 0.287,0 0,0" /></g><g
       transform="translate(58.3394,61.0029)"
       id="g188"><path
         id="path190"
         style="fill:#ffffff;fill-opacity:1;fill-rule:nonzero;stroke:none"
         d="m 0,0 c -0.101,0 -0.202,0.029 -0.289,0.087 -0.144,0.097 -0.23,0.259 -0.23,0.432 v 9.824 L -10.942,6.424 c -0.161,-0.06 -0.339,-0.037 -0.478,0.058 -0.141,0.097 -0.224,0.257 -0.224,0.427 v 8.26 l -11.137,-4.115 c -0.158,-0.062 -0.337,-0.037 -0.476,0.06 -0.139,0.097 -0.222,0.256 -0.222,0.426 v 8.439 l -12,-4.295 c -0.158,-0.058 -0.335,-0.034 -0.474,0.063 -0.138,0.098 -0.22,0.256 -0.22,0.425 v 9.136 l -13.549,-4.653 c -0.271,-0.09 -0.567,0.052 -0.659,0.323 -0.094,0.271 0.051,0.566 0.322,0.66 l 14.237,4.887 c 0.158,0.054 0.333,0.029 0.47,-0.068 0.136,-0.098 0.217,-0.255 0.217,-0.423 v -9.125 l 12,4.296 c 0.157,0.057 0.335,0.033 0.473,-0.063 0.139,-0.098 0.221,-0.256 0.221,-0.425 v -8.432 l 11.136,4.115 c 0.159,0.061 0.337,0.037 0.477,-0.06 0.139,-0.097 0.222,-0.256 0.222,-0.426 V 7.659 l 10.423,3.919 c 0.159,0.061 0.338,0.038 0.478,-0.058 0.141,-0.097 0.224,-0.257 0.224,-0.427 V 1.294 l 27.433,11.321 c 0.264,0.11 0.568,-0.016 0.677,-0.281 0.109,-0.266 -0.017,-0.568 -0.282,-0.678 L 0.198,0.039 C 0.134,0.013 0.067,0 0,0" /></g><g
       transform="translate(87.7334,31.7373)"
       id="g192"><path
         id="path194"
         style="fill:#ffffff;fill-opacity:1;fill-rule:nonzero;stroke:none"
         d="M 0,0 21.714,-6.857 21.198,66.666 0,72.161 Z m 22.238,-8.086 c -0.052,0 -0.105,0.008 -0.156,0.023 l -22.757,7.187 c -0.216,0.068 -0.363,0.269 -0.363,0.495 v 73.213 c 0,0.16 0.074,0.313 0.202,0.41 0.127,0.098 0.293,0.133 0.447,0.092 L 21.845,67.57 c 0.227,-0.058 0.387,-0.263 0.388,-0.498 l 0.524,-74.635 c 10e-4,-0.166 -0.077,-0.324 -0.211,-0.422 -0.09,-0.067 -0.198,-0.101 -0.308,-0.101" /></g><g
       transform="translate(109.707,35.4004)"
       id="g196"><path
         id="path198"
         style="fill:#ffffff;fill-opacity:1;fill-rule:nonzero;stroke:none"
         d="m 0,0 c -0.053,0 -0.108,0.009 -0.162,0.026 l -12.734,4.168 c -0.213,0.07 -0.358,0.269 -0.358,0.493 v 58.812 c 0,0.158 0.073,0.309 0.197,0.407 0.125,0.099 0.286,0.135 0.441,0.098 L -0.344,61.109 C -0.065,61.044 0.107,60.765 0.042,60.485 -0.024,60.206 -0.307,60.031 -0.583,60.1 l -11.633,2.744 V 5.063 L 0.162,1.013 C 0.434,0.924 0.583,0.631 0.493,0.358 0.422,0.14 0.218,0 0,0" /></g><g
       transform="translate(87.2144,30.8379)"
       id="g200"><path
         id="path202"
         style="fill:#ffffff;fill-opacity:1;fill-rule:nonzero;stroke:none"
         d="M 0,0 C -0.143,0 -0.284,0.058 -0.387,0.173 -0.578,0.386 -0.56,0.714 -0.346,0.905 L 9.412,9.637 C 9.625,9.828 9.953,9.812 10.145,9.596 10.336,9.383 10.317,9.055 10.104,8.863 L 0.346,0.132 C 0.247,0.043 0.124,0 0,0" /></g><g
       transform="translate(96.9717,98.3799)"
       id="g204"><path
         id="path206"
         style="fill:#ffffff;fill-opacity:1;fill-rule:nonzero;stroke:none"
         d="m 0,0 c -0.088,0 -0.178,0.023 -0.26,0.07 l -9.758,5.67 c -0.248,0.145 -0.332,0.462 -0.188,0.71 0.143,0.248 0.461,0.33 0.709,0.189 L 0.261,0.969 C 0.509,0.824 0.593,0.507 0.449,0.259 0.353,0.093 0.179,0 0,0" /></g><g
       transform="translate(58.3394,61.002)"
       id="g208"><path
         id="path210"
         style="fill:#ffffff;fill-opacity:1;fill-rule:nonzero;stroke:none"
         d="m 0,0 c -0.051,0 -0.103,0.008 -0.154,0.024 l -28.948,9.002 c -0.217,0.068 -0.365,0.268 -0.365,0.495 v 3.078 c 0,0.287 0.233,0.518 0.519,0.518 0.287,0 0.519,-0.231 0.519,-0.518 V 9.903 L 0.154,1.015 C 0.428,0.93 0.581,0.639 0.496,0.365 0.426,0.143 0.221,0 0,0" /></g><g
       transform="translate(47.2144,67.3926)"
       id="g212"><path
         id="path214"
         style="fill:#ffffff;fill-opacity:1;fill-rule:nonzero;stroke:none"
         d="m 0,0 c -0.052,0 -0.106,0.009 -0.158,0.025 l -27.715,8.884 c -0.273,0.088 -0.423,0.38 -0.335,0.653 0.086,0.273 0.379,0.421 0.652,0.335 L 0.158,1.014 C 0.431,0.926 0.582,0.634 0.494,0.361 0.424,0.141 0.22,0 0,0" /></g><g
       transform="translate(112.1523,11.8437)"
       id="g216"><path
         id="path218"
         style="fill:#ffffff;fill-opacity:1;fill-rule:nonzero;stroke:none"
         d="m 0,0 c -0.058,0 -0.116,0.009 -0.171,0.028 l -33.947,11.894 c -0.208,0.073 -0.347,0.269 -0.347,0.49 v 45.592 c 0,0.287 0.232,0.518 0.519,0.518 0.286,0 0.519,-0.231 0.519,-0.518 V 12.78 L -0.004,1.07 5.557,3.11 v 92.743 l -32.573,7.064 v -5.813 c 0,-0.238 -0.162,-0.445 -0.393,-0.503 l -2.472,-0.619 c -0.156,-0.035 -0.32,-0.003 -0.446,0.095 -0.126,0.099 -0.199,0.249 -0.199,0.409 v 8.118 l -19.733,-5.681 c -0.157,-0.046 -0.325,-0.015 -0.456,0.084 -0.13,0.098 -0.207,0.252 -0.207,0.415 v 6.744 l -11.71,-3.074 c -0.156,-0.042 -0.321,-0.007 -0.449,0.091 -0.127,0.098 -0.202,0.25 -0.202,0.411 v 8.277 l -10.929,-3.06 c -0.156,-0.044 -0.324,-0.012 -0.454,0.086 -0.129,0.098 -0.205,0.251 -0.205,0.414 v 9.079 l -12.496,-2.94 c -0.154,-0.038 -0.317,-0.001 -0.441,0.098 -0.124,0.098 -0.197,0.249 -0.197,0.407 v 7.88 c 0,0.287 0.233,0.519 0.519,0.519 0.287,0 0.519,-0.232 0.519,-0.519 v -7.225 l 12.496,2.94 c 0.155,0.039 0.316,0 0.441,-0.098 0.124,-0.098 0.197,-0.249 0.197,-0.407 v -9.05 l 10.929,3.061 c 0.158,0.042 0.325,0.01 0.454,-0.087 0.129,-0.098 0.205,-0.251 0.205,-0.413 v -8.289 l 11.71,3.074 c 0.156,0.041 0.322,0.007 0.449,-0.091 0.128,-0.099 0.202,-0.25 0.202,-0.411 v -6.728 l 19.733,5.682 c 0.159,0.044 0.327,0.014 0.456,-0.084 0.13,-0.099 0.207,-0.252 0.207,-0.415 v -8.143 l 1.434,0.359 v 6.051 c 0,0.157 0.072,0.305 0.194,0.404 0.121,0.098 0.283,0.136 0.435,0.102 L 6.186,96.778 C 6.424,96.727 6.595,96.516 6.595,96.271 V 2.748 C 6.595,2.53 6.459,2.336 6.254,2.261 L 0.179,0.031 C 0.121,0.01 0.061,0 0,0" /></g><g
       transform="translate(130.4937,76.8623)"
       id="g220"><path
         id="path222"
         style="fill:#ffffff;fill-opacity:1;fill-rule:nonzero;stroke:none"
         d="m 0,0 8.77,-2.543 v 1.804 L 2.119,1.19 Z m 95.542,-55.484 c -0.051,0 -0.104,0.007 -0.157,0.025 l -16.04,5.099 c -0.216,0.068 -0.361,0.268 -0.361,0.494 v 8.125 l -15.792,5.298 c -0.212,0.071 -0.354,0.269 -0.354,0.492 v 6.527 l -13.45,4.345 c -0.215,0.069 -0.359,0.268 -0.359,0.494 v 8.753 l -14.401,4.454 c -0.217,0.067 -0.365,0.269 -0.365,0.496 v 8.1 L 9.807,3.738 V -3.233 C 9.807,-3.396 9.731,-3.551 9.6,-3.648 9.469,-3.747 9.301,-3.779 9.144,-3.731 l -10.623,3.08 c -0.2,0.057 -0.347,0.23 -0.371,0.438 -0.024,0.208 0.079,0.41 0.262,0.512 L 1.801,2.201 C 1.921,2.27 2.064,2.289 2.199,2.247 L 8.77,0.342 v 4.072 c 0,0.161 0.074,0.314 0.202,0.411 0.128,0.1 0.295,0.133 0.45,0.091 L 34.916,-1.882 C 35.143,-1.943 35.3,-2.148 35.3,-2.384 v -8.115 l 14.401,-4.454 c 0.217,-0.068 0.365,-0.269 0.365,-0.496 v -8.758 l 13.45,-4.345 c 0.215,-0.069 0.359,-0.268 0.359,-0.494 v -6.532 l 15.792,-5.298 c 0.212,-0.071 0.354,-0.27 0.354,-0.492 v -8.118 L 95.7,-54.471 c 0.273,-0.086 0.424,-0.378 0.337,-0.651 -0.07,-0.221 -0.275,-0.362 -0.495,-0.362" /></g><g
       transform="translate(213.1953,28.1768)"
       id="g224"><path
         id="path226"
         style="fill:#ffffff;fill-opacity:1;fill-rule:nonzero;stroke:none"
         d="m 0,0 c -0.287,0 -0.519,0.231 -0.519,0.519 v 8.577 l -14.476,4.45 c -0.218,0.067 -0.366,0.268 -0.366,0.496 v 8.194 l -13.765,4.285 c -0.217,0.067 -0.364,0.267 -0.364,0.495 v 8.729 l -13.58,3.689 c -0.227,0.061 -0.383,0.266 -0.383,0.501 v 8.119 l -26.067,6.718 -3.631,-2.121 c -0.247,-0.143 -0.566,-0.06 -0.71,0.187 -0.145,0.247 -0.061,0.565 0.186,0.71 l 3.817,2.228 c 0.118,0.07 0.257,0.088 0.391,0.055 l 26.662,-6.872 c 0.229,-0.06 0.389,-0.267 0.389,-0.503 v -8.125 l 13.58,-3.688 c 0.227,-0.062 0.383,-0.267 0.383,-0.501 v -8.745 l 13.765,-4.284 c 0.216,-0.067 0.364,-0.267 0.364,-0.495 V 14.426 L 0.152,9.976 C 0.37,9.908 0.519,9.707 0.519,9.479 V 0.519 C 0.519,0.231 0.287,0 0,0" /></g><g
       transform="translate(42.6152,122.7227)"
       id="g228"><path
         id="path230"
         style="fill:#ffffff;fill-opacity:1;fill-rule:nonzero;stroke:none"
         d="m 0,0 c -0.287,0 -0.519,0.231 -0.519,0.519 v 149.719 c 0,0.286 0.232,0.519 0.519,0.519 0.287,0 0.519,-0.233 0.519,-0.519 V 0.519 C 0.519,0.231 0.287,0 0,0" /></g><g
       transform="translate(42.6152,46.0459)"
       id="g232"><path
         id="path234"
         style="fill:#ffffff;fill-opacity:1;fill-rule:nonzero;stroke:none"
         d="m 0,0 c -0.287,0 -0.519,0.231 -0.519,0.519 v 19.84 c 0,0.287 0.232,0.519 0.519,0.519 0.287,0 0.519,-0.232 0.519,-0.519 V 0.519 C 0.519,0.231 0.287,0 0,0" /></g><g
       transform="translate(161.3965,185.2417)"
       id="g268"><path
         id="path270"
         style="fill:#ffffff;fill-opacity:1;fill-rule:nonzero;stroke:none"
         d="m 0,0 c -0.287,0 -0.519,0.232 -0.519,0.519 v 37.965 c 0,0.287 0.232,0.519 0.519,0.519 0.287,0 0.519,-0.232 0.519,-0.519 V 0.519 C 0.519,0.232 0.287,0 0,0" /></g></g></svg>
