<?xml version="1.0" encoding="UTF-8" standalone="no"?>
<svg
   xmlns:dc="http://purl.org/dc/elements/1.1/"
   xmlns:cc="http://creativecommons.org/ns#"
   xmlns:rdf="http://www.w3.org/1999/02/22-rdf-syntax-ns#"
   xmlns:svg="http://www.w3.org/2000/svg"
   xmlns="http://www.w3.org/2000/svg"
   xmlns:sodipodi="http://sodipodi.sourceforge.net/DTD/sodipodi-0.dtd"
   xmlns:inkscape="http://www.inkscape.org/namespaces/inkscape"
   inkscape:version="1.0 (4035a4fb49, 2020-05-01)"
   sodipodi:docname="searchingNoBg.svg"
   viewBox="0 0 166.85028 420.24326"
   height="420.24326"
   width="166.85028"
   xml:space="preserve"
   id="svg2"
   version="1.1"><metadata
     id="metadata8"><rdf:RDF><cc:Work
         rdf:about=""><dc:format>image/svg+xml</dc:format><dc:type
           rdf:resource="http://purl.org/dc/dcmitype/StillImage" /><dc:title></dc:title></cc:Work></rdf:RDF></metadata><defs
     id="defs6"><clipPath
       id="clipPath22"
       clipPathUnits="userSpaceOnUse"><path
         id="path20"
         d="M 0,368 H 200 V 0 H 0 Z" /></clipPath><clipPath
       id="clipPath46"
       clipPathUnits="userSpaceOnUse"><path
         id="path44"
         d="M 0,368 H 200 V 0 H 0 Z" /></clipPath><clipPath
       clipPathUnits="userSpaceOnUse"
       id="clipPath46-3"><path
         d="M 0,368 H 200 V 0 H 0 Z"
         id="path44-6" /></clipPath></defs><sodipodi:namedview
     inkscape:current-layer="g10"
     inkscape:window-maximized="1"
     inkscape:window-y="0"
     inkscape:window-x="1366"
     inkscape:cy="221.60147"
     inkscape:cx="77.727218"
     inkscape:zoom="1.1902174"
     showgrid="false"
     id="namedview4"
     inkscape:window-height="1052"
     inkscape:window-width="1920"
     inkscape:pageshadow="2"
     inkscape:pageopacity="0"
     guidetolerance="10"
     gridtolerance="10"
     objecttolerance="10"
     borderopacity="1"
     bordercolor="#666666"
     pagecolor="#ffffff" /><g
     transform="matrix(1.3333333,0,0,-1.3333333,-55.606111,466.93481)"
     inkscape:label="Searching"
     inkscape:groupmode="layer"
     id="g10"><g
       transform="translate(5.4457722,9.510869)"
       id="g40"><g
         id="g42"
         clip-path="url(#clipPath46-3)"><g
           id="g48"
           transform="translate(127.2188,317.999)"><path
             d="m 0,0 c -0.202,0 -0.406,0.015 -0.612,0.044 -2.479,0.352 -4.417,2.744 -4.984,3.515 -0.735,0.007 -2.58,0.139 -3.47,1.212 -0.309,0.373 -0.63,1.025 -0.402,2.014 0.261,1.13 0.748,1.856 1.448,2.156 0.887,0.384 1.729,-0.105 1.764,-0.126 0.247,-0.145 0.33,-0.463 0.185,-0.71 -0.145,-0.247 -0.463,-0.331 -0.71,-0.184 -0.002,0 -0.438,0.24 -0.835,0.064 C -7.987,7.821 -8.277,7.326 -8.456,6.551 -8.564,6.083 -8.503,5.717 -8.268,5.434 -7.64,4.676 -5.937,4.575 -5.351,4.599 -5.139,4.608 -4.998,4.519 -4.897,4.368 -4.878,4.339 -2.899,1.415 -0.463,1.071 0.521,0.931 1.439,1.231 2.332,1.984 4.021,3.412 3.159,10.167 2.22,14.09 2.153,14.369 2.325,14.649 2.604,14.716 2.886,14.783 3.162,14.61 3.229,14.333 3.493,13.23 5.729,3.498 3.002,1.191 2.064,0.399 1.058,0 0,0"
             style="fill:#000000;fill-opacity:1;fill-rule:nonzero;stroke:none"
             id="path50" /></g><g
           id="g52"
           transform="translate(102.3135,204.5864)"><path
             d="m 0,0 c -0.073,0 -0.146,0.015 -0.217,0.048 -0.261,0.119 -0.375,0.428 -0.255,0.688 0.058,0.125 5.77,12.567 9.12,23.246 2.382,7.589 3.744,13.461 5.185,19.678 0.624,2.689 1.271,5.479 2.031,8.551 2.506,10.126 3.924,15.632 6.309,20.4 0.607,1.216 1.177,2.214 1.68,3.094 1.431,2.507 2.219,3.889 1.778,6.467 -0.213,1.245 -0.855,4.121 -1.598,7.451 -1.89,8.476 -3.325,15.08 -3.188,16.587 0.217,2.385 2.301,7.675 2.389,7.899 0.105,0.266 0.409,0.398 0.673,0.292 0.267,-0.105 0.398,-0.407 0.292,-0.673 -0.02,-0.054 -2.117,-5.376 -2.321,-7.612 -0.133,-1.466 1.775,-10.02 3.169,-16.267 0.745,-3.344 1.39,-6.231 1.607,-7.502 0.504,-2.945 -0.452,-4.62 -1.9,-7.157 C 24.258,74.322 23.696,73.337 23.101,72.147 20.766,67.478 19.359,62.015 16.872,51.962 16.113,48.895 15.467,46.11 14.845,43.426 13.398,37.189 12.032,31.298 9.639,23.671 6.269,12.928 0.529,0.427 0.472,0.302 0.384,0.112 0.196,0 0,0"
             style="fill:#000000;fill-opacity:1;fill-rule:nonzero;stroke:none"
             id="path54" /></g><g
           id="g56"
           transform="translate(89.228,174.1987)"><path
             d="m 0,0 c -0.008,0 -0.016,0 -0.024,0 -0.427,0.02 -10.497,0.515 -14.514,3.772 -3.958,3.209 -6.196,4.701 -11.022,5.522 l -0.686,0.115 c -5.678,0.942 -20.763,3.445 -26.668,15.149 -0.128,0.256 -0.026,0.568 0.23,0.697 0.257,0.127 0.568,0.026 0.697,-0.229 5.668,-11.235 20.374,-13.674 25.911,-14.593 l 0.69,-0.115 C -20.34,9.459 -17.897,7.832 -13.885,4.579 -10.129,1.534 -0.078,1.042 0.023,1.038 0.31,1.024 0.531,0.782 0.518,0.496 0.505,0.217 0.276,0 0,0"
             style="fill:#000000;fill-opacity:1;fill-rule:nonzero;stroke:none"
             id="path58" /></g><g
           id="g60"
           transform="translate(122.5918,325.2407)"><path
             d="m 0,0 c -1.056,0 -1.756,0.356 -1.815,0.388 -0.254,0.133 -0.351,0.447 -0.217,0.701 0.134,0.254 0.45,0.351 0.701,0.217 C -1.236,1.258 1.076,0.13 3.658,2.929 5.29,4.695 5.592,7.504 5.595,7.532 5.624,7.818 5.869,8.028 6.164,7.996 6.449,7.967 6.656,7.713 6.628,7.428 6.614,7.298 6.285,4.243 4.421,2.225 2.77,0.436 1.168,0 0,0"
             style="fill:#000000;fill-opacity:1;fill-rule:nonzero;stroke:none"
             id="path62" /></g><g
           id="g64"
           transform="translate(81.3003,298.4702)"><path
             d="m 0,0 c -0.205,0 -0.399,0.123 -0.481,0.325 -0.083,0.206 -1.99,5.097 1.173,10.175 3.853,6.184 13.171,5.957 15.932,5.744 1.553,-0.122 3.757,0.843 5.484,2.4 1.181,1.064 3.174,3.354 3.26,6.722 0.156,6.206 3.427,11.648 8.537,14.202 4.87,2.436 8.413,0.64 8.562,0.562 0.253,-0.132 0.351,-0.444 0.219,-0.698 -0.132,-0.254 -0.443,-0.355 -0.699,-0.222 -0.131,0.067 -3.242,1.619 -7.617,-0.57 -4.766,-2.383 -7.818,-7.479 -7.965,-13.301 -0.071,-2.783 -1.35,-5.435 -3.602,-7.466 -1.955,-1.763 -4.411,-2.81 -6.26,-2.665 C 11.155,15.631 4.388,14.47 1.573,9.951 -1.303,5.333 0.464,0.757 0.482,0.711 0.588,0.445 0.459,0.144 0.193,0.037 0.13,0.012 0.064,0 0,0"
             style="fill:#000000;fill-opacity:1;fill-rule:nonzero;stroke:none"
             id="path66" /></g><g
           id="g68"
           transform="translate(94.2925,255.478)"><path
             d="m 0,0 c 0.006,-0.01 0.009,-0.019 0.01,-0.025 10e-4,0 0.002,0.001 0.002,0.001 C 0.009,-0.016 0.005,-0.008 0,0 m 0.037,-0.117 z m 1.451,-0.978 c -0.409,0 -0.713,0.084 -0.93,0.186 -0.172,-0.111 -0.391,-0.203 -0.649,-0.183 -0.233,0.018 -0.564,0.134 -0.816,0.588 -0.339,0.609 0.089,1.685 3.617,6.772 0.347,0.499 0.623,0.897 0.768,1.122 0.723,1.124 2.83,7.166 2.83,8.375 0,0.759 -2.245,2.875 -8.427,5.591 -5.491,2.413 -14.927,7.814 -17.069,9.268 -1.939,1.315 -3.763,2.801 -3.987,4.752 -0.128,1.119 0.312,2.233 1.309,3.31 3.051,3.299 18.854,9.162 21.751,10.015 2.407,0.707 6.396,3.476 9.602,5.701 l 1.009,0.699 c 3.129,2.161 7.807,2.847 8.853,2.977 l 5.1,5.832 c 0.189,0.215 0.516,0.236 0.732,0.048 0.216,-0.188 0.237,-0.516 0.049,-0.732 L 19.999,57.244 C 19.913,57.146 19.792,57.083 19.662,57.07 19.609,57.064 14.332,56.488 11.085,54.247 L 10.079,53.549 C 6.812,51.282 2.746,48.459 0.178,47.705 -2.57,46.896 -18.236,41.082 -21.104,37.981 c -0.793,-0.857 -1.133,-1.67 -1.04,-2.487 0.201,-1.746 2.455,-3.276 3.539,-4.011 2.119,-1.439 11.462,-6.785 16.904,-9.176 2.72,-1.195 9.046,-4.225 9.046,-6.542 C 7.345,14.237 5.116,8.019 4.351,6.828 4.203,6.598 3.919,6.188 3.563,5.676 2.65,4.36 0.302,0.974 0.058,0.015 c 0.021,0.02 0.039,0.039 0.049,0.051 0.1,0.128 0.266,0.171 0.414,0.201 0.162,-0.001 0.312,-0.078 0.41,-0.205 -0.011,0.007 0.115,-0.095 0.45,-0.116 0.753,0.558 4.126,4.849 5.96,7.184 2.718,3.458 2.718,3.453 3.13,3.308 0.209,-0.073 0.353,-0.276 0.353,-0.498 0.002,-0.916 0.366,-4.723 0.843,-5.496 0.504,0.494 1.35,3.601 1.275,5.965 -0.023,0.675 0.028,1.48 0.082,2.332 0.137,2.174 0.307,4.88 -0.831,5.671 -0.568,0.395 -1.776,1.192 -3.256,2.17 -3.449,2.277 -8.173,5.396 -10.043,6.87 -2.633,2.074 -10.177,7.658 -10.253,7.714 -0.155,0.114 -0.233,0.305 -0.204,0.496 0.029,0.19 0.161,0.348 0.343,0.411 0.411,0.143 10.114,3.501 12.807,3.827 1.225,0.149 3.192,0.6 5.094,1.036 2.224,0.509 4.323,0.99 5.242,0.99 0.287,0 0.519,-0.232 0.519,-0.519 0,-0.286 -0.232,-0.519 -0.519,-0.519 -0.8,0 -2.94,-0.49 -5.009,-0.964 C 4.984,39.482 2.99,39.025 1.712,38.87 -0.4,38.614 -7.404,36.276 -9.948,35.412 c 2.021,-1.5 7.35,-5.464 9.484,-7.144 C 1.373,26.82 6.075,23.715 9.509,21.448 11,20.464 12.214,19.661 12.786,19.265 14.404,18.14 14.221,15.237 14.06,12.676 14.008,11.85 13.958,11.069 13.979,10.442 14.05,8.227 13.343,4.732 12.359,3.716 12.126,3.476 11.871,3.354 11.599,3.354 10.376,3.354 9.975,6.703 9.846,8.625 9.379,8.042 8.763,7.258 8.158,6.488 2.686,-0.474 2.014,-1.095 1.488,-1.095"
             style="fill:#000000;fill-opacity:1;fill-rule:nonzero;stroke:none"
             id="path70" /></g><g
           id="g72"
           transform="translate(126.2764,286.4976)"><path
             d="m 0,0 c -0.225,0 -0.429,0.146 -0.496,0.368 -0.028,0.092 -2.846,9.319 -5.067,13.92 -2.222,4.603 -7.192,11.913 -7.242,11.986 -0.161,0.237 -0.1,0.56 0.137,0.721 0.232,0.161 0.558,0.103 0.721,-0.137 0.051,-0.073 5.063,-7.446 7.319,-12.119 1.299,-2.692 2.764,-6.825 3.794,-9.918 -0.353,4.578 -0.939,11.458 -1.453,13.872 -0.06,0.28 0.119,0.556 0.399,0.616 0.284,0.058 0.557,-0.12 0.617,-0.4 C -0.465,15.114 0.479,1.146 0.518,0.554 0.535,0.291 0.353,0.056 0.094,0.008 0.062,0.003 0.03,0 0,0"
             style="fill:#000000;fill-opacity:1;fill-rule:nonzero;stroke:none"
             id="path74" /></g><g
           id="g76"
           transform="translate(111.0918,282.4214)"><path
             d="m 0,0 c -0.337,0 -0.664,0.043 -0.975,0.132 -4.777,1.366 -7.22,13.161 -7.322,13.663 -0.057,0.281 0.125,0.555 0.405,0.612 0.285,0.054 0.556,-0.125 0.613,-0.406 0.658,-3.244 3.125,-11.88 6.59,-12.871 0.847,-0.241 1.942,0.009 2.926,0.67 1.28,0.859 3.524,3.192 4.181,9.161 0.936,8.512 -6.461,18.706 -6.535,18.808 -0.17,0.231 -0.12,0.556 0.111,0.726 0.228,0.169 0.554,0.121 0.725,-0.112 C 1.034,29.954 8.431,19.764 7.449,10.848 6.746,4.461 4.245,1.897 2.816,0.938 1.899,0.322 0.915,0 0,0"
             style="fill:#000000;fill-opacity:1;fill-rule:nonzero;stroke:none"
             id="path78" /></g><g
           id="g80"
           transform="translate(100.9966,277.9092)"><path
             d="m 0,0 h -0.011 c -0.286,0.006 -0.514,0.243 -0.508,0.53 l 0.366,17.406 c 0.006,0.287 0.213,0.522 0.529,0.508 0.288,-0.007 0.515,-0.243 0.508,-0.53 L 0.519,0.508 C 0.513,0.225 0.282,0 0,0"
             style="fill:#000000;fill-opacity:1;fill-rule:nonzero;stroke:none"
             id="path82" /></g><g
           id="g84"
           transform="translate(36.9644,198.771)"><path
             d="m 0,0 c -0.167,0 -0.331,0.081 -0.431,0.229 -0.16,0.238 -0.097,0.561 0.141,0.721 0.448,0.301 44.861,30.248 49.096,40.742 4.32,10.707 7.524,14.907 7.658,15.08 0.176,0.227 0.5,0.268 0.728,0.094 0.226,-0.176 0.268,-0.501 0.093,-0.728 C 57.253,56.096 54.025,51.853 49.769,41.304 45.416,30.516 2.129,1.326 0.289,0.088 0.2,0.029 0.1,0 0,0"
             style="fill:#000000;fill-opacity:1;fill-rule:nonzero;stroke:none"
             id="path86" /></g><g
           id="g88"
           transform="translate(133.21,300.6455)"><path
             d="m 0,0 c -4.049,0 -7.38,0.136 -7.647,0.147 -0.288,0.013 -0.509,0.254 -0.498,0.541 0.012,0.286 0.243,0.526 0.541,0.497 0.129,-0.007 12.926,-0.528 19.162,0.472 6.82,1.095 15.325,4.631 15.584,5.786 0.112,0.591 -0.58,2.958 -6.478,12.174 -2.496,3.9 -10.871,15.163 -11.665,15.812 -0.701,0.574 -6.052,2.505 -8.626,3.363 -1.118,0.372 -1.585,0.172 -1.67,0.065 -0.13,-0.256 -0.432,-0.34 -0.685,-0.213 -0.256,0.128 -0.35,0.459 -0.221,0.715 0.06,0.122 0.658,1.167 2.904,0.417 0.078,-0.026 7.853,-2.641 8.956,-3.544 0.978,-0.8 9.417,-12.204 11.882,-16.056 C 27.744,10.48 28.338,8.174 28.161,7.249 27.745,5.063 17.621,1.58 11.722,0.633 8.591,0.13 3.953,0 0,0"
             style="fill:#000000;fill-opacity:1;fill-rule:nonzero;stroke:none"
             id="path90" /></g><g
           id="g92"
           transform="translate(136.1211,310.3433)"><path
             d="m 0,0 c -1.274,0 -2.368,0.031 -3.133,0.106 -3.041,0.302 -8.9,1.015 -8.959,1.022 -0.285,0.035 -0.487,0.294 -0.453,0.579 0.034,0.285 0.295,0.486 0.578,0.452 C -11.908,2.151 -6.061,1.44 -3.03,1.14 0.875,0.751 14.178,1.603 14.312,1.612 14.576,1.619 14.844,1.414 14.862,1.127 14.881,0.841 14.664,0.594 14.378,0.576 13.934,0.547 5.371,0 0,0"
             style="fill:#000000;fill-opacity:1;fill-rule:nonzero;stroke:none"
             id="path94" /></g><g
           id="g96"
           transform="translate(151.4072,310.0547)"><path
             d="m 0,0 c -0.193,0 -0.379,0.109 -0.468,0.295 -0.044,0.092 -4.409,9.203 -6.416,12.597 -2.75,4.656 -5.385,8.186 -6.264,8.393 -0.467,0.11 -1.25,0.287 -2.183,0.498 -1.735,0.392 -3.984,0.9 -5.67,1.308 -2.746,0.666 -4.124,1 -4.539,2.037 -0.107,0.267 0.022,0.568 0.288,0.675 0.266,0.107 0.568,-0.022 0.675,-0.289 0.217,-0.54 1.65,-0.888 3.82,-1.414 1.681,-0.407 3.924,-0.914 5.654,-1.305 0.937,-0.211 1.724,-0.389 2.193,-0.499 1.759,-0.414 5.426,-6.345 6.921,-8.876 C -3.961,9.987 0.288,1.119 0.468,0.743 0.592,0.484 0.482,0.175 0.224,0.051 0.151,0.016 0.075,0 0,0"
             style="fill:#000000;fill-opacity:1;fill-rule:nonzero;stroke:none"
             id="path98" /></g><g
           id="g100"
           transform="translate(135.3096,337.2388)"><path
             d="M 0,0 C -0.054,0 -0.107,0.008 -0.161,0.026 -3.228,1.03 -6.893,2.017 -7.478,1.876 -8.307,1.668 -8.559,1.338 -8.562,1.335 -8.726,1.111 -9.045,1.048 -9.276,1.205 -9.506,1.36 -9.579,1.662 -9.433,1.898 -9.364,2.008 -8.962,2.574 -7.729,2.883 -6.582,3.173 -1.4,1.524 0.161,1.012 0.434,0.923 0.582,0.63 0.493,0.357 0.422,0.139 0.219,0 0,0"
             style="fill:#000000;fill-opacity:1;fill-rule:nonzero;stroke:none"
             id="path102" /></g><g
           id="g104"
           transform="translate(134.3301,336.0273)"><path
             d="M 0,0 C -0.054,0 -0.107,0.008 -0.161,0.026 -3.228,1.029 -6.891,2.018 -7.478,1.875 -8.307,1.668 -8.559,1.337 -8.562,1.334 -8.726,1.109 -9.045,1.048 -9.276,1.204 c -0.23,0.156 -0.303,0.457 -0.157,0.693 0.069,0.111 0.471,0.677 1.704,0.985 1.147,0.288 6.33,-1.359 7.89,-1.87 C 0.434,0.923 0.582,0.63 0.493,0.357 0.422,0.139 0.219,0 0,0"
             style="fill:#000000;fill-opacity:1;fill-rule:nonzero;stroke:none"
             id="path106" /></g><g
           id="g108"
           transform="translate(133.5967,334.5098)"><path
             d="M 0,0 C -0.054,0 -0.107,0.008 -0.161,0.026 -3.228,1.03 -6.895,2.018 -7.478,1.876 -8.307,1.668 -8.559,1.338 -8.562,1.335 -8.726,1.11 -9.045,1.049 -9.276,1.205 c -0.23,0.155 -0.303,0.457 -0.157,0.693 0.069,0.11 0.471,0.676 1.704,0.985 1.146,0.289 6.33,-1.36 7.89,-1.871 C 0.434,0.923 0.582,0.63 0.493,0.357 0.422,0.139 0.219,0 0,0"
             style="fill:#000000;fill-opacity:1;fill-rule:nonzero;stroke:none"
             id="path110" /></g><g
           id="g112"
           transform="translate(78.5454,134.0342)"><path
             d="m 0,0 h -0.011 c -0.999,0.021 -9.804,0.229 -11.51,0.857 -2.006,0.74 -2.462,3.385 -1.875,5.617 0.142,0.539 0.432,1.085 0.834,1.841 1.129,2.123 3.229,6.075 4.773,15.731 1.365,8.533 4.372,19.9 4.402,20.014 0.074,0.277 0.358,0.443 0.635,0.368 0.277,-0.074 0.442,-0.358 0.368,-0.635 C -2.414,43.68 -5.408,32.362 -6.764,23.882 -8.335,14.055 -10.488,10.004 -11.645,7.828 -12.014,7.134 -12.281,6.632 -12.392,6.21 -12.849,4.476 -12.572,2.352 -11.162,1.832 -9.855,1.35 -2.654,1.095 0.011,1.037 0.298,1.031 0.525,0.794 0.519,0.508 0.513,0.225 0.282,0 0,0"
             style="fill:#000000;fill-opacity:1;fill-rule:nonzero;stroke:none"
             id="path114" /></g><g
           id="g116"
           transform="translate(79.7749,141.0166)"><path
             d="m 0,0 z m 0.519,-0.517 c -0.173,0 -0.327,0.085 -0.421,0.215 -0.148,0.075 -0.506,0.205 -0.776,0.303 -1.395,0.504 -2.391,0.919 -2.486,1.679 -0.101,0.81 6.219,20.494 9.995,32.155 0.087,0.273 0.38,0.422 0.653,0.334 0.273,-0.088 0.422,-0.38 0.334,-0.653 C 3.945,21.556 -1.819,3.484 -2.12,1.813 -1.897,1.545 -0.804,1.149 -0.325,0.977 0.611,0.639 1.038,0.484 1.038,0.002 c 0,-0.287 -0.232,-0.519 -0.519,-0.519"
             style="fill:#000000;fill-opacity:1;fill-rule:nonzero;stroke:none"
             id="path118" /></g><g
           id="g120"
           transform="translate(87.6528,133.7012)"><path
             d="M 0,0 C -0.682,0 -1.222,0.018 -1.494,0.028 -1.78,0.04 -2.003,0.281 -1.992,0.567 -1.98,0.854 -1.733,1.066 -1.453,1.065 0.961,0.971 5.12,1.127 5.991,1.95 6.075,2.03 6.076,2.073 6.076,2.088 6.077,2.597 3.423,3.926 0,4.877 -0.277,4.953 -0.438,5.239 -0.362,5.516 -0.285,5.792 0.004,5.951 0.277,5.877 2.343,5.304 7.144,3.784 7.114,2.07 7.11,1.845 7.036,1.51 6.704,1.196 5.614,0.165 2.12,0.001 0,0"
             style="fill:#000000;fill-opacity:1;fill-rule:nonzero;stroke:none"
             id="path122" /></g><g
           id="g124"
           transform="translate(104.4814,202.0615)"><path
             d="m 0,0 c -0.773,0 -1.403,-0.629 -1.403,-1.403 0,-0.774 0.63,-1.404 1.403,-1.404 0.774,0 1.404,0.63 1.404,1.404 C 1.404,-0.629 0.774,0 0,0 m 0,-3.845 c -1.346,0 -2.44,1.095 -2.44,2.442 0,1.346 1.094,2.441 2.44,2.441 1.347,0 2.441,-1.095 2.441,-2.441 C 2.441,-2.75 1.347,-3.845 0,-3.845"
             style="fill:#000000;fill-opacity:1;fill-rule:nonzero;stroke:none"
             id="path126" /></g><g
           id="g128"
           transform="translate(158.8223,25.5078)"><path
             d="M 0,0 H -7.689 C -7.924,0 -8.13,0.157 -8.19,0.384 l -45.948,171.101 c -0.074,0.277 0.09,0.562 0.367,0.637 0.278,0.072 0.562,-0.091 0.635,-0.367 L -7.291,1.037 h 6.613 c -3.096,11.492 -45.26,167.958 -46.753,173.83 -0.96,3.772 -1.733,5.659 -2.509,6.116 -0.231,0.137 -0.481,0.151 -0.862,0.053 -0.96,-0.251 -1.363,-2.206 -1.428,-2.87 -0.029,-0.286 -0.288,-0.494 -0.568,-0.466 -0.285,0.028 -0.493,0.28 -0.466,0.566 0.033,0.336 0.37,3.296 2.2,3.774 0.409,0.107 1.026,0.206 1.651,-0.163 1.075,-0.634 1.913,-2.527 2.988,-6.754 C -44.885,169.065 0.048,2.337 0.501,0.653 0.543,0.498 0.51,0.331 0.412,0.203 0.313,0.075 0.161,0 0,0"
             style="fill:#000000;fill-opacity:1;fill-rule:nonzero;stroke:none"
             id="path130" /></g><g
           id="g132"
           transform="translate(57.0957,25.5078)"><path
             d="m 0,0 h -7.69 c -0.162,0 -0.314,0.075 -0.412,0.203 -0.098,0.128 -0.131,0.295 -0.089,0.45 0.454,1.684 45.386,168.412 46.927,174.47 1.074,4.226 1.912,6.12 2.988,6.754 0.625,0.37 1.241,0.271 1.651,0.163 1.829,-0.478 2.167,-3.438 2.199,-3.774 0.028,-0.286 -0.18,-0.538 -0.466,-0.566 -0.282,-0.028 -0.539,0.18 -0.567,0.466 -0.065,0.664 -0.469,2.619 -1.428,2.87 -0.38,0.098 -0.63,0.084 -0.862,-0.053 -0.776,-0.458 -1.55,-2.344 -2.509,-6.116 C 38.249,168.995 -3.916,12.529 -7.013,1.037 h 6.615 l 45.844,170.718 c 0.074,0.275 0.357,0.438 0.636,0.367 0.276,-0.075 0.44,-0.36 0.366,-0.637 L 0.501,0.384 C 0.44,0.157 0.235,0 0,0"
             style="fill:#000000;fill-opacity:1;fill-rule:nonzero;stroke:none"
             id="path134" /></g></g></g></g></svg>
